<svg width="21" height="40" viewBox="0 0 21 40" fill="none" xmlns="http://www.w3.org/2000/svg">
<path d="M12.7759 16.7638V17.4878C12.7759 21.7718 12.7719 26.0598 12.7879 30.3478C12.7879 30.7638 12.6679 30.8598 12.2719 30.8518C10.9999 30.8278 9.73192 30.8398 8.45992 30.8478C8.31192 30.8478 8.09592 30.7638 8.07992 31.0438C8.06392 31.3478 8.29592 31.2838 8.46392 31.2838L12.3679 31.2878C12.4959 31.2878 12.7039 31.2238 12.7319 31.3758C12.7719 31.5878 12.5359 31.5558 12.4039 31.5918L8.47192 32.6638C8.38392 32.6878 8.29192 32.6998 8.20792 32.7358C8.03992 32.8038 8.05992 32.9558 8.08792 33.0878C8.11992 33.2638 8.27192 33.1918 8.34392 33.1558C9.06392 32.7918 9.69992 33.0998 10.3519 33.3678C11.0559 33.6598 11.7679 33.9358 12.4839 34.1998C12.7079 34.2838 12.8079 34.4038 12.7719 34.6398C12.7319 34.9158 12.5159 34.8038 12.3759 34.8078C11.0759 34.8158 9.77592 34.8118 8.47192 34.8158C8.31192 34.8158 8.08392 34.7278 8.07192 35.0398C8.05992 35.3558 8.29192 35.2718 8.45592 35.2718C8.97192 35.2798 9.48792 35.2758 10.0359 35.3598C9.47592 35.6838 8.92392 36.0158 8.35592 36.3238C8.08792 36.4678 8.00392 36.6398 8.13992 36.9718C8.80792 36.5918 9.49992 36.2598 10.1159 35.8238C10.8399 35.3118 11.6159 35.2078 12.4559 35.2638C12.6879 35.2798 12.7679 35.3318 12.7799 35.5758C12.8279 36.6638 12.8359 36.6718 11.7879 36.8758C10.7079 37.0838 9.62792 37.2758 8.54392 37.4758C8.29592 37.5238 8.07192 37.5358 8.02392 37.9038C7.86392 39.1718 6.79992 40.0598 5.59592 39.9878C4.28392 39.9038 3.33592 38.9118 3.33192 37.5678C3.31992 34.9798 3.33192 32.3918 3.33192 29.8078C3.33192 29.1478 3.32792 28.4918 3.33592 27.8318C3.33992 27.6278 3.28792 27.5558 3.06792 27.5078C1.60792 27.1798 0.971924 26.3398 0.971924 24.8358C0.975924 21.2678 0.971924 17.7038 0.971924 14.1358C0.971924 13.7518 0.971923 13.3678 1.07592 12.9958C1.35992 11.9878 2.25592 11.2998 3.31992 11.2878C4.67992 11.2758 6.04392 11.2958 7.40792 11.2718C7.77192 11.2678 7.82792 11.3958 7.82392 11.7198C7.81192 15.9758 7.81592 20.2318 7.81992 24.4878C7.81992 24.6238 7.81992 24.7638 7.82392 24.8998C7.82792 25.0398 7.89992 25.1398 8.04392 25.1398C8.18392 25.1398 8.26392 25.0398 8.27592 24.9038C8.28792 24.7678 8.28392 24.6278 8.28392 24.4918C8.28392 20.2518 8.29192 16.0118 8.27192 11.7718C8.27192 11.3518 8.39192 11.2718 8.77992 11.2798C10.0799 11.3038 11.3799 11.2958 12.6839 11.2838C13.3119 11.2798 13.8479 11.4918 14.3239 11.8838C15.7439 13.0478 17.1599 14.2158 18.5919 15.3678C19.2599 15.9038 19.5959 16.5838 19.5759 17.4358C19.5759 17.5438 19.5719 17.6518 19.5719 17.7558C19.5759 18.0758 19.4719 18.4598 19.6119 18.7038C19.7759 18.9878 20.1959 18.7798 20.4999 18.8198C20.7919 18.8558 20.9679 18.9918 20.9679 19.2798C20.9719 20.9318 21.0559 22.5878 20.9279 24.2358C20.8679 25.0358 20.4319 25.7398 19.9759 26.3958C19.3839 27.2518 18.7719 28.0918 18.1559 28.9318C17.8279 29.3798 17.6839 29.8518 17.6879 30.4238C17.7119 33.3318 17.6959 36.2398 17.6959 39.1478C17.6959 39.2838 17.7039 39.4238 17.6799 39.5598C17.6319 39.8398 17.4559 40.0038 17.1719 39.9798C16.9119 39.9598 16.7519 39.7918 16.7399 39.5318C16.7239 39.2558 16.7319 38.9798 16.7319 38.7038C16.7319 35.9478 16.7199 33.1918 16.7479 30.4358C16.7519 29.8638 16.6039 29.3918 16.2759 28.9438C15.6719 28.1158 15.0639 27.2918 14.4839 26.4438C14.0159 25.7598 13.6159 25.0398 13.4839 24.1998C13.4559 24.0198 13.4319 23.8358 13.4279 23.6518C13.4239 22.2758 13.4239 20.8958 13.4279 19.5198C13.4279 18.9478 13.5639 18.8158 14.1239 18.8118C14.2159 18.8118 14.3119 18.8238 14.3999 18.8078C14.5479 18.7758 14.7599 18.9198 14.8319 18.6798C14.8879 18.4838 14.7919 18.3358 14.6279 18.2118C14.0479 17.7678 13.4639 17.2998 12.7759 16.7638ZM17.2239 28.6158C17.9279 27.5878 18.6999 26.6798 19.3239 25.6638C19.6679 25.0998 20.0119 24.5158 20.0319 23.8478C20.0719 22.5798 20.0439 21.3078 20.0479 20.0398C20.0479 19.8558 20.0039 19.7558 19.7919 19.7638C19.5879 19.7678 19.5799 19.8918 19.5799 20.0398V20.7758C19.5799 21.5718 19.5959 22.3678 19.5759 23.1598C19.5399 24.3958 18.4999 25.3998 17.2559 25.4318C16.0599 25.4598 14.9719 24.5278 14.8999 23.3198C14.8359 22.2678 14.8719 21.2118 14.8599 20.1558C14.8599 19.9798 14.9119 19.7598 14.6119 19.7758C14.3319 19.7918 14.4239 20.0118 14.4239 20.1558C14.4159 21.3478 14.4239 22.5438 14.4199 23.7318C14.4199 24.1238 14.5239 24.4878 14.6839 24.8358C15.3239 26.2238 16.3599 27.3358 17.2239 28.6158ZM8.05992 -0.000153653C10.6719 0.0158463 12.7959 2.15185 12.7719 4.74785C12.7519 7.32785 10.6159 9.44385 8.04392 9.43985C5.41192 9.43585 3.31592 7.27985 3.33592 4.59585C3.35592 2.09185 5.52392 -0.0161537 8.05992 -0.000153653ZM9.91592 39.9038C10.4919 39.0838 11.0399 38.2638 11.6399 37.4838C11.8759 37.1758 12.3079 37.2518 12.6599 37.2078C12.7799 37.1918 12.7599 37.3278 12.7719 37.4158C12.9599 38.9438 11.4399 40.2958 9.91592 39.9038ZM11.0639 37.4798C10.5199 38.2598 10.0359 38.9398 9.55992 39.6278C9.45192 39.7838 9.35192 39.7558 9.21592 39.6758C8.67592 39.3598 8.33992 38.8918 8.13592 38.3078C8.05192 38.0758 8.16792 38.0078 8.35992 37.9718C9.22792 37.8158 10.0919 37.6558 11.0639 37.4798ZM9.95192 32.7278C10.8879 32.4758 11.7079 32.2598 12.5279 32.0278C12.7239 31.9718 12.7759 32.0398 12.7719 32.2198C12.7679 32.6758 12.7719 33.1358 12.7719 33.5918C12.7719 33.7518 12.7199 33.8158 12.5519 33.7518C11.7279 33.4238 10.8959 33.0958 9.95192 32.7278Z" fill="#558EFF"/>
</svg>
